<?xml version="1.0" encoding="utf-8"?>
<!-- Generator: Adobe Illustrator 16.0.2, SVG Export Plug-In . SVG Version: 6.00 Build 0)  -->
<!DOCTYPE svg PUBLIC "-//W3C//DTD SVG 1.1//EN" "http://www.w3.org/Graphics/SVG/1.1/DTD/svg11.dtd">
<svg version="1.1" id="svg8" xmlns:svg="http://www.w3.org/2000/svg"
	 xmlns="http://www.w3.org/2000/svg" xmlns:xlink="http://www.w3.org/1999/xlink" x="0px" y="0px" width="100px" height="78px"
	 viewBox="256 357 100 78" enable-background="new 256 357 100 78" xml:space="preserve">
<circle fill="#FDE6B9" cx="326" cy="387" r="30"/>
<g id="layer1" transform="translate(0 -284.3)">
	<g id="layer1-58" transform="matrix(.265 0 0 .265 .001 284.299)">
		<path id="rect5747" vector-effect="none" fill="#F8B323" d="M1045.497,1351.076c-18.859,0-34.18,15.323-34.18,34.051v27.237
			c0,3.799,3.013,6.81,6.81,6.81h47.798v20.43c-0.131,9.165,13.751,9.165,13.62,0v-54.477c0-7.728-2.62-14.8-7.072-20.43h136.717
			c11.523,0,20.427,9.036,20.427,20.43c-0.129,9.165,13.753,9.165,13.62,0c0-18.728-15.323-34.18-34.176-34.18h-163.565V1351.076z
			 M1045.497,1364.696c11.523,0,20.429,9.036,20.429,20.43v20.559h-40.988v-20.559
			C1024.937,1373.732,1033.971,1364.696,1045.497,1364.696z M1126.69,1405.686c-3.799,0.262-6.549,3.534-6.287,7.333
			c0.262,3.667,3.274,6.416,6.941,6.416h54.61c3.796-0.129,6.81-3.143,6.677-6.939c-0.133-3.667-3.014-6.548-6.677-6.681h-54.61
			C1127.082,1405.686,1126.951,1405.686,1126.69,1405.686L1126.69,1405.686z M1126.69,1432.923
			c-3.799,0.265-6.549,3.538-6.287,7.337c0.262,3.663,3.274,6.416,6.941,6.283h34.18c3.796,0.133,6.939-2.882,6.939-6.677
			c0.133-3.799-2.878-6.943-6.677-6.943c-0.129,0-0.262,0-0.262,0h-34.18C1127.082,1432.923,1126.951,1432.923,1126.69,1432.923z
			 M1072.605,1460.164c-3.797,0-6.81,3.143-6.679,6.939v136.457c0,18.728,15.323,34.18,34.18,34.18h95.465
			c9.169,0.129,9.169-13.749,0-13.62h-68.358c4.321-5.76,7.072-12.703,7.072-20.43v-20.427h61.418c9.298,0.129,9.298-13.749,0-13.62
			h-68.359c-3.797,0-6.81,3.011-6.81,6.81v27.237c0,11.527-9.036,20.43-20.429,20.43c-11.393,0-20.429-9.036-20.429-20.43v-136.586
			C1079.676,1463.174,1076.533,1460.031,1072.605,1460.164z M1127.344,1460.164c-3.797,0-6.81,3.011-6.81,6.81
			c0,3.796,3.013,6.81,6.81,6.81h27.239c3.797,0,6.808-3.014,6.808-6.81c0-3.799-3.011-6.81-6.808-6.81H1127.344z
			 M1127.344,1487.533c-3.797,0.133-6.81,3.143-6.679,6.939c0.131,3.667,3.013,6.549,6.679,6.681h34.18
			c3.796,0.129,6.939-2.882,6.939-6.681c0.133-3.796-2.878-6.939-6.677-6.939c-0.129,0-0.262,0-0.262,0H1127.344z
			 M1127.344,1514.774c-3.797,0-6.81,3.011-6.81,6.806c0,3.799,3.013,6.81,6.81,6.81h54.61c3.796,0,6.81-3.011,6.81-6.81
			c0-3.796-3.015-6.806-6.81-6.806H1127.344z"/>
		<path id="path5767" vector-effect="none" fill="#F8B323" d="M1236.56,1405.686c-33.785,0-61.417,27.502-61.417,61.417
			c0,31.56,23.961,57.621,54.606,61.026v15.323c-7.857,2.882-13.62,10.344-13.62,19.119v54.61c0,11.262,9.301,20.559,20.563,20.559
			c11.262,0,20.427-9.298,20.427-20.559v-54.61c0-8.774-5.76-16.369-13.617-19.251V1528c30.642-3.405,54.606-29.466,54.606-61.026
			C1297.977,1433.188,1270.346,1405.686,1236.56,1405.686z M1236.56,1419.307c26.452,0,47.8,21.344,47.8,47.796
			c0,26.456-21.348,47.8-47.8,47.8s-47.796-21.344-47.796-47.8C1188.764,1440.651,1210.108,1419.307,1236.56,1419.307z
			 M1236.56,1555.76c3.928,0,6.81,2.882,6.81,6.81v54.61c0,3.928-2.882,6.81-6.81,6.81s-6.81-3.015-6.81-6.81v-54.61
			C1229.617,1558.642,1232.632,1555.76,1236.56,1555.76z"/>
	</g>
</g>
</svg>
