<?xml version="1.0" encoding="utf-8"?>
<!-- Generator: Adobe Illustrator 16.0.2, SVG Export Plug-In . SVG Version: 6.00 Build 0)  -->
<!DOCTYPE svg PUBLIC "-//W3C//DTD SVG 1.1//EN" "http://www.w3.org/Graphics/SVG/1.1/DTD/svg11.dtd">
<svg version="1.1" id="Capa_1" xmlns="http://www.w3.org/2000/svg" xmlns:xlink="http://www.w3.org/1999/xlink" x="0px" y="0px"
	 width="99.997px" height="78px" viewBox="256.003 355.019 99.997 78" enable-background="new 256.003 355.019 99.997 78"
	 xml:space="preserve">
<circle fill="#FDE6B9" cx="326" cy="385.019" r="30"/>
<g>
	<path fill="#F8B323" d="M354.063,374.667l-21.155-7.133c-0.727-0.24-1.571,0.121-1.813,0.969c-0.24,0.725,0.121,1.57,0.969,1.813
		l20.912,7.012l-9.912,4.836c-0.362-0.242-0.847-0.483-1.33-0.604l-29.496-7.736c-0.968-4.836-6.891-6.892-10.518-3.386
		c-1.209,1.209-1.935,2.901-1.935,4.595l0,0c0,2.055,1.691,3.747,3.748,3.747h5.078c1.329,0,2.658-0.726,3.264-1.935l27.563,7.253
		c-8.704,4.11-28.288,13.659-30.706,14.868c-1.813,0.848-3.747,0.848-5.318,0l-44.366-21.516l44.97-15.231
		c1.209-0.484,2.66-0.484,3.869,0l17.528,5.923c0.726,0.242,1.571-0.121,1.813-0.967c0.242-0.727-0.12-1.571-0.967-1.813
		l-17.528-5.924c-1.813-0.604-3.868-0.604-5.803,0l-44.97,15.231c-2.417,0.847-2.659,4.11-0.363,5.199l23.211,11.362
		c-1.33,6.043-3.265,12.572-5.32,18.374c-0.846,2.418-0.12,4.957,1.813,6.527c6.649,5.319,14.627,9.31,22.728,11.969
		c3.868,1.209,8.099,1.33,11.968,0c8.1-2.659,15.957-6.648,22.727-11.969c1.935-1.57,2.78-4.23,1.813-6.527
		c-2.057-5.682-3.989-12.209-5.319-18.374l10.88-5.319v22c-1.813,0.121-3.385,1.692-3.385,3.627v4.231
		c0,0.604,0.241,1.209,0.726,1.571l-0.483,8.341c-0.12,1.571,1.209,3.021,2.779,3.021h3.748c1.571,0,2.901-1.33,2.78-3.021
		l-0.604-8.22c0.482-0.363,0.726-0.969,0.726-1.572v-4.23c0-1.935-1.451-3.506-3.385-3.627v-22.121c0-0.483-0.121-0.848-0.242-1.33
		l9.55-4.715C356.721,378.897,356.479,375.514,354.063,374.667L354.063,374.667z M308.608,375.876h-5.078
		c-0.483,0-0.847-0.362-0.847-0.726l0,0c0-0.967,0.363-1.813,1.089-2.418c2.055-1.934,5.561-0.604,5.682,2.298
		C309.454,375.635,308.971,375.876,308.608,375.876z M332.181,405.855c-7.856,6.165-19.1,10.638-22.968,11.363
		c-0.847,0.121-1.33,0.967-1.209,1.692c0.12,0.847,0.967,1.329,1.692,1.208c3.988-0.726,15.109-5.077,23.452-11.362
		c0.24,0.604,0.482,1.209,0.604,1.813c0.483,1.209,0.12,2.538-0.968,3.264c-7.857,6.166-16.198,9.672-21.76,11.484
		c-3.386,1.088-7.012,1.088-10.154,0c-5.562-1.813-13.902-5.198-21.759-11.484c-0.967-0.726-1.33-2.055-0.967-3.264c0,0,0,0,0-0.121
		c0.241-0.604,0.483-1.209,0.604-1.813c8.1,6.045,19.221,10.518,23.452,11.363c0.846,0.12,1.571-0.362,1.691-1.209
		c0.121-0.847-0.362-1.571-1.209-1.692c-3.626-0.726-14.868-5.077-22.968-11.363c1.208-3.626,2.539-8.341,3.626-13.297l18.496,9.067
		c2.418,1.207,5.319,1.207,7.979,0l18.736-8.946C329.643,397.635,330.972,402.229,332.181,405.855L332.181,405.855z
		 M341.973,425.802l0.483-7.736h2.418l0.483,7.736H341.973z M345.479,411.659v3.506h-3.747v-3.506c0-0.363,0.362-0.727,0.726-0.727
		h2.418C345.236,410.933,345.479,411.175,345.479,411.659z"/>
</g>
</svg>
