<?xml version="1.0" encoding="utf-8"?>
<!-- Generator: Adobe Illustrator 16.0.2, SVG Export Plug-In . SVG Version: 6.00 Build 0)  -->
<!DOCTYPE svg PUBLIC "-//W3C//DTD SVG 1.1//EN" "http://www.w3.org/Graphics/SVG/1.1/DTD/svg11.dtd">
<svg version="1.1" id="Capa_1" xmlns="http://www.w3.org/2000/svg" xmlns:xlink="http://www.w3.org/1999/xlink" x="0px" y="0px"
	 width="100px" height="78px" viewBox="206 217 100 78" enable-background="new 206 217 100 78" xml:space="preserve">
<circle fill="#FDE6B9" cx="276" cy="247" r="30"/>
<g>
	<path fill="#F8B323" d="M287.115,256.984l-8.029,8.029c-0.104-0.127-0.216-0.251-0.335-0.369l-10.369-10.369
		c-0.572-0.573-1.502-0.573-2.075,0c-0.573,0.573-0.573,1.502,0,2.075l10.369,10.369c0.892,0.892,0.892,2.342,0,3.233
		s-2.342,0.892-3.233,0l-5.762-5.762c-0.573-0.573-1.503-0.573-2.075,0c-0.574,0.572-0.574,1.502,0,2.075l5.762,5.762
		c0,0,0.001,0,0.001,0.001c0.431,0.432,0.669,1.005,0.669,1.615c0,0.611-0.238,1.185-0.67,1.617
		c-0.433,0.432-1.006,0.669-1.616,0.669c-0.611,0-1.186-0.237-1.616-0.669l-5.762-5.763c-0.574-0.572-1.503-0.572-2.077,0
		c-0.572,0.574-0.572,1.503,0,2.077l5.762,5.762c0.893,0.891,0.893,2.341,0,3.232c-0.431,0.432-1.005,0.67-1.616,0.67
		c-0.61,0-1.184-0.238-1.616-0.67l-5.762-5.762c-0.573-0.574-1.503-0.574-2.076,0c-0.573,0.573-0.573,1.503,0,2.075l5.761,5.762
		c0.893,0.892,0.893,2.343,0,3.233c-0.431,0.432-1.006,0.669-1.616,0.669s-1.185-0.237-1.616-0.669l-3.732-3.732
		c1.189-1.981,0.931-4.597-0.775-6.304l-0.088-0.088c-1.137-1.137-2.678-1.631-4.166-1.482c-0.083-1.245-0.607-2.404-1.498-3.296
		c-0.689-0.688-1.526-1.142-2.41-1.358c0.225-0.584,0.344-1.211,0.344-1.856c0-1.379-0.537-2.674-1.511-3.648
		c-0.975-0.975-2.271-1.511-3.648-1.511c-0.786,0-1.543,0.175-2.231,0.505c-0.231-0.821-0.668-1.597-1.314-2.242
		c-2.011-2.011-5.284-2.011-7.296,0l-0.605,0.605l-0.441-0.441c-0.709-0.709-1.101-1.653-1.101-2.657v-3.827
		c0-0.39-0.155-0.764-0.43-1.038l-6.266-6.267l1.762-1.762c0.573-0.574,0.573-1.503,0-2.076s-1.502-0.573-2.076,0l-2.36,2.36
		c-0.445,0.445-1.169,0.445-1.615,0l-7.553-7.553c-0.573-0.573-1.502-0.573-2.076,0s-0.573,1.502,0,2.076l7.554,7.554
		c0.795,0.794,1.838,1.192,2.883,1.192c0.334,0,0.667-0.045,0.993-0.127l6.249,6.247v3.221c0,1.788,0.696,3.469,1.96,4.733
		l0.441,0.44l-0.491,0.492c-0.975,0.974-1.512,2.27-1.512,3.648c0,1.377,0.537,2.673,1.511,3.647
		c1.006,1.006,2.327,1.509,3.648,1.509c0.021,0,0.042-0.002,0.063-0.002c0,0.021-0.001,0.044-0.001,0.065
		c0,1.379,0.537,2.674,1.511,3.648c0.975,0.974,2.271,1.511,3.648,1.511c0.021,0,0.043-0.002,0.065-0.002
		c-0.017,1.343,0.485,2.689,1.507,3.711c1.006,1.006,2.327,1.509,3.648,1.509c0.022,0,0.043-0.001,0.065-0.001
		c-0.017,1.342,0.485,2.69,1.507,3.713l0.088,0.088c0.975,0.976,2.271,1.512,3.648,1.512c1.378,0,2.674-0.536,3.648-1.512
		l2.753-2.752l3.624,3.624c0.986,0.986,2.298,1.529,3.692,1.529s2.706-0.543,3.691-1.529c1.041-1.041,1.549-2.415,1.524-3.782
		c0.031,0.001,0.063,0.003,0.092,0.003c1.396,0,2.706-0.544,3.693-1.53c1.041-1.041,1.548-2.416,1.524-3.783
		c0.03,0.001,0.061,0.002,0.092,0.002c1.337,0,2.674-0.51,3.691-1.526c0.986-0.986,1.53-2.298,1.53-3.693
		c0-0.029-0.002-0.061-0.003-0.091c0.03,0.001,0.06,0.002,0.09,0.002c1.337,0,2.675-0.509,3.691-1.527
		c1.107-1.105,1.611-2.591,1.515-4.042l8.926-8.925c0.572-0.574,0.572-1.503,0-2.077
		C288.618,256.411,287.688,256.411,287.115,256.984L287.115,256.984z M228.094,269.258c-0.419-0.42-0.65-0.979-0.65-1.571
		c0-0.595,0.231-1.153,0.651-1.573l3.172-3.172c0.434-0.434,1.003-0.65,1.572-0.65s1.139,0.217,1.572,0.649
		c0.867,0.868,0.867,2.278,0,3.146l-3.172,3.172C230.372,270.126,228.961,270.125,228.094,269.258L228.094,269.258z M234.888,275.13
		c-0.594,0-1.153-0.231-1.573-0.651s-0.651-0.979-0.651-1.572s0.231-1.151,0.651-1.572l3.172-3.172l1.973-1.973
		c0.42-0.42,0.979-0.651,1.572-0.651c0.594,0,1.152,0.231,1.572,0.651c0.42,0.42,0.652,0.979,0.652,1.572s-0.231,1.152-0.652,1.572
		l-5.145,5.145C236.04,274.898,235.481,275.13,234.888,275.13L234.888,275.13z M238.535,279.699c-0.867-0.867-0.867-2.278,0-3.145
		l3.501-3.502c0.434-0.434,1.003-0.65,1.573-0.65c0.569,0,1.138,0.217,1.572,0.65c0.42,0.42,0.651,0.979,0.651,1.572
		s-0.231,1.151-0.65,1.571l-3.502,3.503C240.813,280.565,239.402,280.565,238.535,279.699L238.535,279.699z M246.988,285.008
		c-0.419,0.42-0.978,0.65-1.572,0.65c-0.594,0-1.152-0.23-1.572-0.65l-0.088-0.089c-0.867-0.866-0.867-2.277,0-3.145l3.501-3.501
		c0.001-0.001,0.002-0.002,0.003-0.004l0.439-0.439c0.434-0.433,1.003-0.649,1.572-0.649c0.57,0,1.139,0.217,1.572,0.649
		l0.088,0.088c0.867,0.868,0.867,2.278,0,3.146L246.988,285.008z"/>
	<path fill="#F8B323" d="M305.57,244.395c-0.573-0.573-1.502-0.574-2.075,0l-5.501,5.5c-0.076,0.076-0.2,0.077-0.277,0.003
		l-19.446-18.575c-0.04-0.038-0.061-0.085-0.062-0.142c0-0.055,0.019-0.103,0.058-0.143l11.534-11.533
		c0.573-0.573,0.573-1.503,0-2.076c-0.573-0.573-1.502-0.573-2.076,0l-11.533,11.534c-0.602,0.602-0.928,1.402-0.918,2.252
		c0.009,0.686,0.237,1.332,0.646,1.865l-5.278,5.176l-4.973-2.774c-0.65-0.362-1.387-0.554-2.131-0.554h-14.13l-1.075-1.076
		c-0.999-0.999-2.175-1.761-3.496-2.264l-3.912-1.491l-1.807-1.807c0.935-1.565,0.733-3.625-0.613-4.972l-5.89-5.89
		c-0.574-0.573-1.502-0.573-2.076,0c-0.573,0.574-0.573,1.503,0,2.076l5.89,5.89c0.445,0.445,0.445,1.169,0,1.615l-11.97,11.97
		c-0.573,0.573-0.573,1.503,0,2.076c0.287,0.287,0.663,0.43,1.038,0.43s0.751-0.144,1.038-0.43l10.598-10.598l1.939,1.939
		c0.146,0.146,0.322,0.26,0.516,0.334l4.205,1.602c0.907,0.346,1.717,0.867,2.41,1.545c-0.089,0.075-0.177,0.152-0.26,0.235
		l-5.582,5.583c-1.108,1.108-1.718,2.581-1.718,4.147c0,1.566,0.61,3.04,1.717,4.147c1.145,1.145,2.643,1.725,4.146,1.725
		c1.314,0,2.634-0.443,3.727-1.342l4.225-3.473h4.4l5.028,5.028c0.286,0.287,0.662,0.43,1.038,0.43c0.375,0,0.751-0.144,1.038-0.43
		c0.572-0.573,0.572-1.502,0-2.076l-3.633-3.633c0.146-0.228,0.23-0.497,0.23-0.788c0-0.811-0.657-1.467-1.468-1.467h-7.161
		c-0.34,0-0.669,0.118-0.932,0.333l-4.631,3.807c-1.171,0.962-2.861,0.88-3.932-0.191c-0.554-0.554-0.858-1.289-0.858-2.072
		c0-0.782,0.304-1.518,0.858-2.071l5.583-5.583c0.208-0.209,0.487-0.325,0.782-0.325h14.738c0.245,0,0.487,0.063,0.7,0.183
		l5.501,3.068c0.816,0.456,1.854,0.317,2.526-0.339l5.749-5.638l15.829,15.12l-2.305,2.304c-0.573,0.574-0.573,1.502,0,2.075
		c0.287,0.287,0.663,0.431,1.038,0.431s0.752-0.144,1.038-0.431l2.371-2.37c0.551,0.408,1.209,0.615,1.867,0.615
		c0.806,0,1.611-0.304,2.218-0.911l5.5-5.5C306.143,245.897,306.143,244.967,305.57,244.395z"/>
</g>
</svg>
